<svg width="18" height="19" viewBox="0 0 18 19" fill="none" xmlns="http://www.w3.org/2000/svg">
<path d="M2.93315 1.03716L4.58044 0.662796C5.33032 0.492104 6.13689 0.533141 6.8496 0.778245C7.56231 1.02335 8.13245 1.45577 8.45358 1.99479L9.47868 3.71537C9.7549 4.17887 9.83184 4.69601 9.69872 5.19419C9.5656 5.69237 9.22908 6.14661 8.7364 6.49315L6.94521 7.75326C6.92308 7.76886 6.90491 7.78738 6.89162 7.80792C6.70407 8.09693 6.98887 8.86887 7.881 10.0354C8.88724 11.3502 9.66425 11.8698 10.0245 11.7897L12.3753 11.2468C13.0192 11.0985 13.7084 11.1059 14.3463 11.2679C14.9843 11.43 15.5391 11.7386 15.9329 12.1505L17.3897 13.6727C17.847 14.1507 18.0589 14.7376 17.9859 15.3245C17.9129 15.9114 17.56 16.4584 16.9927 16.8638L15.7394 17.7585C15.3036 18.07 14.7743 18.2973 14.1968 18.421C13.6193 18.5448 13.0107 18.5613 12.423 18.4691C8.93289 17.921 5.806 15.8006 3.01551 12.1543C0.224036 8.50573 -0.646254 5.39851 0.4751 2.8431C0.662809 2.41528 0.984246 2.02783 1.41225 1.7135C1.84026 1.39917 2.36226 1.16719 2.93414 1.03716H2.93315ZM3.36383 2.11234C3.02068 2.19032 2.70746 2.32947 2.45062 2.51805C2.19378 2.70662 2.00088 2.93907 1.8882 3.19575C0.921657 5.39776 1.70462 8.19501 4.30457 11.5927C6.90254 14.9882 9.71883 16.8975 12.7256 17.3692C13.0785 17.4245 13.4438 17.4146 13.7905 17.3403C14.1371 17.266 14.4548 17.1295 14.7163 16.9424L15.9686 16.0484C16.2742 15.8302 16.4643 15.5357 16.5038 15.2197C16.5432 14.9036 16.4292 14.5875 16.183 14.3301L14.7262 12.8072C14.5142 12.5854 14.2155 12.4193 13.8721 12.332C13.5286 12.2447 13.1576 12.2407 12.811 12.3205L10.4542 12.8648C9.15021 13.1576 7.92367 12.3377 6.59194 10.5962C5.46364 9.12269 5.07265 8.05799 5.55493 7.31451C5.64821 7.17075 5.77523 7.04122 5.93004 6.93191L7.72123 5.67179C7.98662 5.4852 8.1679 5.24058 8.23963 4.97228C8.31136 4.70397 8.26992 4.42546 8.12114 4.17583L7.09605 2.456C6.92314 2.16569 6.61608 1.93279 6.23223 1.80079C5.84838 1.6688 5.41397 1.64673 5.01013 1.73872L3.36283 2.11308L3.36383 2.11234Z" fill="white"/>
</svg>
