<svg width="22" height="22" viewBox="0 0 22 22" fill="none" xmlns="http://www.w3.org/2000/svg">
<path d="M19.2015 7.613C19.1922 6.91874 19.0623 6.23138 18.8174 5.58167C18.6051 5.03364 18.2807 4.53593 17.8651 4.12034C17.4496 3.70476 16.9518 3.38043 16.4038 3.16808C15.7625 2.92733 15.0849 2.79715 14.4 2.78308C13.5181 2.74367 13.2386 2.73267 11.0001 2.73267C8.76157 2.73267 8.47465 2.73267 7.59923 2.78308C6.91463 2.79725 6.23738 2.92743 5.59631 3.16808C5.0482 3.38028 4.55042 3.70456 4.13481 4.12016C3.71921 4.53577 3.39493 5.03355 3.18273 5.58167C2.94149 6.22254 2.81159 6.89993 2.79865 7.58458C2.75923 8.46733 2.74731 8.74691 2.74731 10.9854C2.74731 13.2239 2.74731 13.5099 2.79865 14.3862C2.8124 15.0719 2.94165 15.7484 3.18273 16.391C3.39529 16.9389 3.7198 17.4365 4.13555 17.852C4.55129 18.2674 5.04912 18.5915 5.59723 18.8037C6.23655 19.0541 6.91391 19.1936 7.60015 19.2162C8.4829 19.2556 8.76248 19.2675 11.001 19.2675C13.2395 19.2675 13.5264 19.2675 14.4018 19.2162C15.0867 19.2027 15.7643 19.0728 16.4056 18.8321C16.9535 18.6195 17.4511 18.2951 17.8667 17.8795C18.2822 17.464 18.6066 16.9664 18.8192 16.4185C19.0603 15.7768 19.1896 15.1003 19.2033 14.4137C19.2427 13.5319 19.2546 13.2523 19.2546 11.0129C19.2528 8.77441 19.2528 8.49025 19.2015 7.613ZM10.9946 15.2186C8.6534 15.2186 6.75681 13.322 6.75681 10.9808C6.75681 8.63966 8.6534 6.74308 10.9946 6.74308C12.1185 6.74308 13.1964 7.18956 13.9911 7.98429C14.7858 8.77902 15.2323 9.85691 15.2323 10.9808C15.2323 12.1048 14.7858 13.1826 13.9911 13.9774C13.1964 14.7721 12.1185 15.2186 10.9946 15.2186ZM15.401 7.5745C15.2712 7.57462 15.1426 7.54914 15.0227 7.49952C14.9027 7.44991 14.7938 7.37712 14.702 7.28534C14.6102 7.19356 14.5374 7.08457 14.4878 6.96463C14.4382 6.84469 14.4127 6.71613 14.4128 6.58633C14.4128 6.45662 14.4384 6.32819 14.488 6.20835C14.5376 6.08852 14.6104 5.97963 14.7021 5.88792C14.7938 5.7962 14.9027 5.72345 15.0225 5.67381C15.1424 5.62417 15.2708 5.59862 15.4005 5.59862C15.5302 5.59862 15.6587 5.62417 15.7785 5.67381C15.8983 5.72345 16.0072 5.7962 16.0989 5.88792C16.1907 5.97963 16.2634 6.08852 16.313 6.20835C16.3627 6.32819 16.3882 6.45662 16.3882 6.58633C16.3882 7.13267 15.9464 7.5745 15.401 7.5745Z" fill="white"/>
<path d="M10.9945 13.7335C12.5148 13.7335 13.7472 12.5011 13.7472 10.9808C13.7472 9.46048 12.5148 8.22803 10.9945 8.22803C9.47415 8.22803 8.2417 9.46048 8.2417 10.9808C8.2417 12.5011 9.47415 13.7335 10.9945 13.7335Z" fill="white"/>
</svg>
