<svg width="18" height="19" viewBox="0 0 18 19" fill="none" xmlns="http://www.w3.org/2000/svg">
<path d="M9 11.6631C8.10999 11.6631 7.23996 11.4373 6.49994 11.0142C5.75991 10.5911 5.18314 9.98976 4.84254 9.28621C4.50195 8.58265 4.41283 7.80847 4.58647 7.06158C4.7601 6.31469 5.18869 5.62862 5.81802 5.09014C6.44736 4.55166 7.24918 4.18495 8.1221 4.03639C8.99501 3.88782 9.89981 3.96407 10.7221 4.25549C11.5443 4.54692 12.2471 5.04043 12.7416 5.67361C13.2361 6.3068 13.5 7.05122 13.5 7.81275C13.4986 8.83354 13.024 9.81218 12.1804 10.534C11.3368 11.2558 10.193 11.6619 9 11.6631ZM9 5.50254C8.46599 5.50254 7.94397 5.63803 7.49996 5.89188C7.05595 6.14573 6.70988 6.50653 6.50553 6.92867C6.30117 7.3508 6.2477 7.81531 6.35188 8.26344C6.45606 8.71158 6.71321 9.12322 7.09081 9.44631C7.46841 9.76939 7.94951 9.98942 8.47326 10.0786C8.99701 10.1677 9.53989 10.122 10.0332 9.9471C10.5266 9.77224 10.9483 9.47614 11.245 9.09623C11.5416 8.71632 11.7 8.26966 11.7 7.81275C11.6993 7.20023 11.4146 6.61297 10.9084 6.17986C10.4022 5.74674 9.71587 5.50315 9 5.50254Z" fill="white"/>
<path d="M9 18.46L2.09783 12.0753C2.00192 11.9794 1.90701 11.8829 1.8131 11.7859C0.634084 10.5677 -0.00284824 9.07978 9.57508e-06 7.55036C9.57508e-06 5.67816 0.94822 3.88264 2.63605 2.55879C4.32387 1.23494 6.61305 0.491211 9 0.491211C11.3869 0.491211 13.6761 1.23494 15.364 2.55879C17.0518 3.88264 18 5.67816 18 7.55036C18.0028 9.07908 17.3662 10.5663 16.1877 11.7839L16.1869 11.7859C16.1869 11.7859 15.9414 12.0387 15.9046 12.0727L9 18.46ZM3.11892 11.0126C3.11892 11.0126 3.31037 11.2102 3.35373 11.2526L9 16.4757L14.6536 11.2455C14.6896 11.2102 14.8819 11.0106 14.8819 11.0106C15.845 10.0154 16.3655 8.79985 16.3636 7.55036C16.3636 6.01856 15.5878 4.5495 14.2069 3.46635C12.8259 2.3832 10.953 1.77469 9 1.77469C7.04704 1.77469 5.17408 2.3832 3.79313 3.46635C2.41218 4.5495 1.63637 6.01856 1.63637 7.55036C1.63465 8.80063 2.15492 10.0168 3.11892 11.0126Z" fill="white"/>
</svg>
