<svg width="18" height="19" viewBox="0 0 18 19" fill="none" xmlns="http://www.w3.org/2000/svg">
<path d="M16.7143 0.851074H1.28571C0.944722 0.851074 0.617695 1.04039 0.376577 1.37737C0.135459 1.71435 0 2.17139 0 2.64795V17.0229C0 17.4995 0.135459 17.9566 0.376577 18.2935C0.617695 18.6305 0.944722 18.8198 1.28571 18.8198H16.7143C17.0553 18.8198 17.3823 18.6305 17.6234 18.2935C17.8645 17.9566 18 17.4995 18 17.0229V2.64795C18 2.17139 17.8645 1.71435 17.6234 1.37737C17.3823 1.04039 17.0553 0.851074 16.7143 0.851074ZM15.3 2.64795L9 8.73936L2.7 2.64795H15.3ZM1.28571 17.0229V3.46553L8.63357 10.5722C8.74118 10.6765 8.86903 10.7324 9 10.7324C9.13097 10.7324 9.25882 10.6765 9.36643 10.5722L16.7143 3.46553V17.0229H1.28571Z" fill="white"/>
</svg>
