<svg width="20" height="21" viewBox="0 0 20 21" fill="none" xmlns="http://www.w3.org/2000/svg">
<path d="M8.21182 18.176C3.66374 18.176 0 14.3056 0 9.50107C0 4.69651 3.66374 0.826172 8.21182 0.826172C12.7599 0.826172 16.4236 4.69651 16.4236 9.50107C16.4236 14.3056 12.7599 18.176 8.21182 18.176ZM8.21182 2.16077C4.35858 2.16077 1.26336 5.43054 1.26336 9.50107C1.26336 13.5716 4.35858 16.8414 8.21182 16.8414C12.0651 16.8414 15.1603 13.5716 15.1603 9.50107C15.1603 5.43054 12.0651 2.16077 8.21182 2.16077Z" fill="#333333"/>
<path d="M14.3275 13.8555L20 19.8478L19.1068 20.7914L13.4343 14.799L14.3275 13.8555Z" fill="#333333"/>
</svg>
